<svg version="1.1" xmlns="http://www.w3.org/2000/svg" viewBox="0 0 1812.9444444444453 1937.5" width="1812.9444444444453" height="1937.5">
  <!-- svg-source:excalidraw -->
  
  <defs>
    <style class="style-fonts">
      @font-face {
        font-family: "Virgil";
        src: url("https://excalidraw.com/Virgil.woff2");
      }
      @font-face {
        font-family: "Cascadia";
        src: url("https://excalidraw.com/Cascadia.woff2");
      }
      @font-face {
        font-family: "Assistant";
        src: url("https://excalidraw.com/Assistant-Regular.woff2");
      }
    </style>
    
  </defs>
  <rect x="0" y="0" width="1812.9444444444453" height="1937.5" fill="#ffffff"></rect><g stroke-linecap="round" transform="translate(1111 10) rotate(0 204 68)"><path d="M32 0 C113.92 0, 195.84 0, 376 0 M32 0 C121.5 0, 210.99 0, 376 0 M376 0 C397.33 0, 408 10.67, 408 32 M376 0 C397.33 0, 408 10.67, 408 32 M408 32 C408 60.56, 408 89.11, 408 104 M408 32 C408 55.18, 408 78.37, 408 104 M408 104 C408 125.33, 397.33 136, 376 136 M408 104 C408 125.33, 397.33 136, 376 136 M376 136 C277.57 136, 179.14 136, 32 136 M376 136 C250.36 136, 124.72 136, 32 136 M32 136 C10.67 136, 0 125.33, 0 104 M32 136 C10.67 136, 0 125.33, 0 104 M0 104 C0 83.46, 0 62.91, 0 32 M0 104 C0 80.65, 0 57.3, 0 32 M0 32 C0 10.67, 10.67 0, 32 0 M0 32 C0 10.67, 10.67 0, 32 0" stroke="#1e1e1e" stroke-width="4" fill="none"></path></g><g transform="translate(1262.265625 56.40000000000009) rotate(0 52.734375 21.59999999999991)"><text x="52.734375" y="34.762499999999996" font-family="Cascadia, Segoe UI Emoji" font-size="36px" fill="#1e1e1e" text-anchor="middle" style="white-space: pre;" direction="ltr" dominant-baseline="alphabetic">USERS</text></g><g stroke-linecap="round" transform="translate(277 1791.5) rotate(0 204 68)"><path d="M32 0 C122.25 0, 212.51 0, 376 0 M32 0 C112.64 0, 193.29 0, 376 0 M376 0 C397.33 0, 408 10.67, 408 32 M376 0 C397.33 0, 408 10.67, 408 32 M408 32 C408 56.03, 408 80.06, 408 104 M408 32 C408 49.13, 408 66.25, 408 104 M408 104 C408 125.33, 397.33 136, 376 136 M408 104 C408 125.33, 397.33 136, 376 136 M376 136 C275.22 136, 174.44 136, 32 136 M376 136 C287.46 136, 198.91 136, 32 136 M32 136 C10.67 136, 0 125.33, 0 104 M32 136 C10.67 136, 0 125.33, 0 104 M0 104 C0 86.13, 0 68.26, 0 32 M0 104 C0 87.36, 0 70.73, 0 32 M0 32 C0 10.67, 10.67 0, 32 0 M0 32 C0 10.67, 10.67 0, 32 0" stroke="#1e1e1e" stroke-width="4" fill="none"></path></g><g transform="translate(417.71875 1837.9) rotate(0 63.28125 21.600000000000023)"><text x="63.28125" y="34.762499999999996" font-family="Cascadia, Segoe UI Emoji" font-size="36px" fill="#1e1e1e" text-anchor="middle" style="white-space: pre;" direction="ltr" dominant-baseline="alphabetic">GENRES</text></g><g stroke-linecap="round" transform="translate(10 478.5) rotate(0 204 68)"><path d="M32 0 C143.22 0, 254.44 0, 376 0 M32 0 C159.13 0, 286.26 0, 376 0 M376 0 C397.33 0, 408 10.67, 408 32 M376 0 C397.33 0, 408 10.67, 408 32 M408 32 C408 58.14, 408 84.27, 408 104 M408 32 C408 55.88, 408 79.76, 408 104 M408 104 C408 125.33, 397.33 136, 376 136 M408 104 C408 125.33, 397.33 136, 376 136 M376 136 C246.21 136, 116.42 136, 32 136 M376 136 C297.8 136, 219.61 136, 32 136 M32 136 C10.67 136, 0 125.33, 0 104 M32 136 C10.67 136, 0 125.33, 0 104 M0 104 C0 87.33, 0 70.67, 0 32 M0 104 C0 80.6, 0 57.2, 0 32 M0 32 C0 10.67, 10.67 0, 32 0 M0 32 C0 10.67, 10.67 0, 32 0" stroke="#1e1e1e" stroke-width="4" fill="none"></path></g><g transform="translate(119.078125 524.9000000000001) rotate(0 94.921875 21.59999999999991)"><text x="94.921875" y="34.762499999999996" font-family="Cascadia, Segoe UI Emoji" font-size="36px" fill="#1e1e1e" text-anchor="middle" style="white-space: pre;" direction="ltr" dominant-baseline="alphabetic">PLATFORMS</text></g><g stroke-linecap="round" transform="translate(595.5 482.5) rotate(0 204 68)"><path d="M32 0 C110.03 0, 188.06 0, 376 0 M32 0 C145.12 0, 258.24 0, 376 0 M376 0 C397.33 0, 408 10.67, 408 32 M376 0 C397.33 0, 408 10.67, 408 32 M408 32 C408 60.72, 408 89.44, 408 104 M408 32 C408 57.32, 408 82.65, 408 104 M408 104 C408 125.33, 397.33 136, 376 136 M408 104 C408 125.33, 397.33 136, 376 136 M376 136 C271.14 136, 166.29 136, 32 136 M376 136 C278.1 136, 180.2 136, 32 136 M32 136 C10.67 136, 0 125.33, 0 104 M32 136 C10.67 136, 0 125.33, 0 104 M0 104 C0 78.62, 0 53.24, 0 32 M0 104 C0 84.41, 0 64.81, 0 32 M0 32 C0 10.67, 10.67 0, 32 0 M0 32 C0 10.67, 10.67 0, 32 0" stroke="#1e1e1e" stroke-width="4" fill="none"></path></g><g transform="translate(746.765625 528.9000000000001) rotate(0 52.734375 21.59999999999991)"><text x="52.734375" y="34.762499999999996" font-family="Cascadia, Segoe UI Emoji" font-size="36px" fill="#1e1e1e" text-anchor="middle" style="white-space: pre;" direction="ltr" dominant-baseline="alphabetic">LISTS</text></g><g stroke-linecap="round" transform="translate(843 1286) rotate(0 204 68)"><path d="M32 0 C113.3 0, 194.6 0, 376 0 M32 0 C109.18 0, 186.36 0, 376 0 M376 0 C397.33 0, 408 10.67, 408 32 M376 0 C397.33 0, 408 10.67, 408 32 M408 32 C408 59.27, 408 86.55, 408 104 M408 32 C408 58.29, 408 84.59, 408 104 M408 104 C408 125.33, 397.33 136, 376 136 M408 104 C408 125.33, 397.33 136, 376 136 M376 136 C259.77 136, 143.54 136, 32 136 M376 136 C275.44 136, 174.88 136, 32 136 M32 136 C10.67 136, 0 125.33, 0 104 M32 136 C10.67 136, 0 125.33, 0 104 M0 104 C0 83.27, 0 62.54, 0 32 M0 104 C0 81.45, 0 58.9, 0 32 M0 32 C0 10.67, 10.67 0, 32 0 M0 32 C0 10.67, 10.67 0, 32 0" stroke="#1e1e1e" stroke-width="4" fill="none"></path></g><g transform="translate(994.265625 1332.4) rotate(0 52.734375 21.600000000000023)"><text x="52.734375" y="34.762499999999996" font-family="Cascadia, Segoe UI Emoji" font-size="36px" fill="#1e1e1e" text-anchor="middle" style="white-space: pre;" direction="ltr" dominant-baseline="alphabetic">GAMES</text></g><g stroke-linecap="round"><g transform="translate(1112 137.5) rotate(0 -405 168.75)"><path d="M0 0 C-135 56.25, -675 281.25, -810 337.5 M0 0 C-135 56.25, -675 281.25, -810 337.5" stroke="#1e1e1e" stroke-width="4" fill="none"></path></g></g><mask></mask><g transform="translate(284.5 437.5) rotate(0 10.546875 21.59999999999991)"><text x="0" y="34.762499999999996" font-family="Cascadia, Segoe UI Emoji" font-size="36px" fill="#1e1e1e" text-anchor="start" style="white-space: pre;" direction="ltr" dominant-baseline="alphabetic">N</text></g><g transform="translate(1085.6111111111113 98.05555555555566) rotate(0 10.546875 21.59999999999991)"><text x="0" y="34.762499999999996" font-family="Cascadia, Segoe UI Emoji" font-size="36px" fill="#1e1e1e" text-anchor="start" style="white-space: pre;" direction="ltr" dominant-baseline="alphabetic">M</text></g><g stroke-linecap="round"><g transform="translate(1162.2777777777774 146.3174603174607) rotate(0 -176.66666666666606 167.49999999999977)"><path d="M0 0 C-58.89 55.83, -294.44 279.17, -353.33 335 M0 0 C-58.89 55.83, -294.44 279.17, -353.33 335" stroke="#1e1e1e" stroke-width="4" fill="none"></path></g></g><mask></mask><g transform="translate(791.4444444444453 430.4841269841272) rotate(0 10.546875 21.59999999999991)"><text x="0" y="34.762499999999996" font-family="Cascadia, Segoe UI Emoji" font-size="36px" fill="#1e1e1e" text-anchor="start" style="white-space: pre;" direction="ltr" dominant-baseline="alphabetic">N</text></g><g transform="translate(1091.7309027777792 154.7174603174608) rotate(0 10.546875 21.59999999999991)"><text x="0" y="34.762499999999996" font-family="Cascadia, Segoe UI Emoji" font-size="36px" fill="#1e1e1e" text-anchor="start" style="white-space: pre;" direction="ltr" dominant-baseline="alphabetic">1</text></g><g stroke-linecap="round"><g transform="translate(1231.4444444444453 144.65079365079373) rotate(0 -5 571.25)"><path d="M0 0 C-1.67 190.42, -8.33 952.08, -10 1142.5 M0 0 C-1.67 190.42, -8.33 952.08, -10 1142.5" stroke="#1e1e1e" stroke-width="4" fill="none"></path></g></g><mask></mask><g transform="translate(1250.8975694444453 155.55079365079382) rotate(0 10.546875 21.59999999999991)"><text x="0" y="34.762499999999996" font-family="Cascadia, Segoe UI Emoji" font-size="36px" fill="#1e1e1e" text-anchor="start" style="white-space: pre;" direction="ltr" dominant-baseline="alphabetic">N</text></g><g transform="translate(1248.3975694444453 1230.5507936507938) rotate(0 10.546875 21.59999999999991)"><text x="0" y="34.762499999999996" font-family="Cascadia, Segoe UI Emoji" font-size="36px" fill="#1e1e1e" text-anchor="start" style="white-space: pre;" direction="ltr" dominant-baseline="alphabetic">M</text></g><g stroke-linecap="round"><g transform="translate(813.9444444444453 619.6507936507937) rotate(0 86.25 333.75)"><path d="M0 0 C28.75 111.25, 143.75 556.25, 172.5 667.5 M0 0 C28.75 111.25, 143.75 556.25, 172.5 667.5" stroke="#1e1e1e" stroke-width="4" fill="none"></path></g></g><mask></mask><g transform="translate(788.3975694444453 628.0507936507938) rotate(0 10.546875 21.59999999999991)"><text x="0" y="34.762499999999996" font-family="Cascadia, Segoe UI Emoji" font-size="36px" fill="#1e1e1e" text-anchor="start" style="white-space: pre;" direction="ltr" dominant-baseline="alphabetic">N</text></g><g transform="translate(938.3975694444453 1233.0507936507938) rotate(0 10.546875 21.59999999999991)"><text x="0" y="34.762499999999996" font-family="Cascadia, Segoe UI Emoji" font-size="36px" fill="#1e1e1e" text-anchor="start" style="white-space: pre;" direction="ltr" dominant-baseline="alphabetic">M</text></g><g stroke-linecap="round"><g transform="translate(310.46788194444525 623.4007936507937) rotate(0 272.5 330)"><path d="M0 0 C90.83 110, 454.17 550, 545 660 M0 0 C90.83 110, 454.17 550, 545 660" stroke="#1e1e1e" stroke-width="4" fill="none"></path></g></g><mask></mask><g transform="translate(284.92100694444525 631.8007936507943) rotate(0 10.546875 21.59999999999991)"><text x="0" y="34.762499999999996" font-family="Cascadia, Segoe UI Emoji" font-size="36px" fill="#1e1e1e" text-anchor="start" style="white-space: pre;" direction="ltr" dominant-baseline="alphabetic">N</text></g><g transform="translate(814.9210069444453 1269.3007936507943) rotate(0 10.546875 21.600000000000023)"><text x="0" y="34.762499999999996" font-family="Cascadia, Segoe UI Emoji" font-size="36px" fill="#1e1e1e" text-anchor="start" style="white-space: pre;" direction="ltr" dominant-baseline="alphabetic">M</text></g><g stroke-linecap="round"><g transform="translate(565.4678819444453 1790.9007936507937) rotate(0 242.08333333333303 -185)"><path d="M0 0 C80.69 -61.67, 403.47 -308.33, 484.17 -370 M0 0 C80.69 -61.67, 403.47 -308.33, 484.17 -370" stroke="#1e1e1e" stroke-width="4" fill="none"></path></g></g><mask></mask><g transform="translate(947.4210069444453 1429.3007936507943) rotate(0 10.546875 21.600000000000023)"><text x="0" y="34.762499999999996" font-family="Cascadia, Segoe UI Emoji" font-size="36px" fill="#1e1e1e" text-anchor="start" style="white-space: pre;" direction="ltr" dominant-baseline="alphabetic">N</text></g><g transform="translate(546.5876736111113 1737.6341269841278) rotate(0 10.546875 21.600000000000023)"><text x="0" y="34.762499999999996" font-family="Cascadia, Segoe UI Emoji" font-size="36px" fill="#1e1e1e" text-anchor="start" style="white-space: pre;" direction="ltr" dominant-baseline="alphabetic">M</text></g><g stroke-linecap="round" transform="translate(1394.9444444444453 1782.4841269841272) rotate(0 204 68)"><path d="M32 0 C134.93 0, 237.87 0, 376 0 M32 0 C136.03 0, 240.06 0, 376 0 M376 0 C397.33 0, 408 10.67, 408 32 M376 0 C397.33 0, 408 10.67, 408 32 M408 32 C408 52.12, 408 72.23, 408 104 M408 32 C408 53.3, 408 74.61, 408 104 M408 104 C408 125.33, 397.33 136, 376 136 M408 104 C408 125.33, 397.33 136, 376 136 M376 136 C255.6 136, 135.21 136, 32 136 M376 136 C291.79 136, 207.59 136, 32 136 M32 136 C10.67 136, 0 125.33, 0 104 M32 136 C10.67 136, 0 125.33, 0 104 M0 104 C0 82.45, 0 60.9, 0 32 M0 104 C0 87.74, 0 71.48, 0 32 M0 32 C0 10.67, 10.67 0, 32 0 M0 32 C0 10.67, 10.67 0, 32 0" stroke="#1e1e1e" stroke-width="4" fill="none"></path></g><g transform="translate(1504.0225694444453 1828.8841269841273) rotate(0 94.921875 21.600000000000023)"><text x="94.921875" y="34.762499999999996" font-family="Cascadia, Segoe UI Emoji" font-size="36px" fill="#1e1e1e" text-anchor="middle" style="white-space: pre;" direction="ltr" dominant-baseline="alphabetic">COMPANIES</text></g><g stroke-linecap="round"><g transform="translate(1600.1944444444453 1782.1507936507933) rotate(0 -272.91666666666606 -180.83333333333314)"><path d="M0 0 C-90.97 -60.28, -454.86 -301.39, -545.83 -361.67 M0 0 C-90.97 -60.28, -454.86 -301.39, -545.83 -361.67" stroke="#1e1e1e" stroke-width="4" fill="none"></path></g></g><mask></mask><g transform="translate(1125.0642361111131 1423.884126984127) rotate(0 10.546875 21.600000000000023)"><text x="0" y="34.762499999999996" font-family="Cascadia, Segoe UI Emoji" font-size="36px" fill="#1e1e1e" text-anchor="start" style="white-space: pre;" direction="ltr" dominant-baseline="alphabetic">N</text></g><g transform="translate(1598.3975694444453 1727.2174603174606) rotate(0 10.546875 21.600000000000023)"><text x="0" y="34.762499999999996" font-family="Cascadia, Segoe UI Emoji" font-size="36px" fill="#1e1e1e" text-anchor="start" style="white-space: pre;" direction="ltr" dominant-baseline="alphabetic">M</text></g></svg>